<svg width="24" height="24" viewBox="0 0 24 24" fill="none" xmlns="http://www.w3.org/2000/svg">
<g clip-path="url(#clip0_217_1318)">
<path d="M3.00001 9.00028C2.99996 7.5141 3.36795 6.05104 4.07113 4.74173C4.7743 3.43243 5.79077 2.31763 7.02977 1.49689C8.26877 0.676147 9.69173 0.175004 11.1716 0.0382086C12.6515 -0.0985869 14.1422 0.133223 15.5106 0.712939C16.8791 1.29266 18.0827 2.20223 19.014 3.36046C19.9452 4.51868 20.5752 5.8895 20.8476 7.3505C21.1199 8.81151 21.0263 10.3172 20.5749 11.7332C20.1236 13.1492 19.3286 14.4314 18.261 15.4653C17.9565 15.7593 17.7225 16.0653 17.5815 16.3938L16.4385 19.0473C16.3805 19.1818 16.2844 19.2963 16.1621 19.3768C16.0397 19.4573 15.8965 19.5002 15.75 19.5003C15.9489 19.5003 16.1397 19.5793 16.2803 19.72C16.421 19.8606 16.5 20.0514 16.5 20.2503C16.5 20.4492 16.421 20.64 16.2803 20.7806C16.1397 20.9213 15.9489 21.0003 15.75 21.0003C15.9489 21.0003 16.1397 21.0793 16.2803 21.2199C16.421 21.3606 16.5 21.5514 16.5 21.7503C16.5 21.9492 16.421 22.14 16.2803 22.2806C16.1397 22.4213 15.9489 22.5003 15.75 22.5003L15.414 23.1708C15.2895 23.4199 15.0981 23.6294 14.8613 23.776C14.6245 23.9225 14.3515 24.0001 14.073 24.0003H9.92701C9.64851 24.0001 9.37556 23.9225 9.13872 23.776C8.90188 23.6294 8.71049 23.4199 8.58601 23.1708L8.25001 22.5003C8.0511 22.5003 7.86033 22.4213 7.71968 22.2806C7.57903 22.14 7.50001 21.9492 7.50001 21.7503C7.50001 21.5514 7.57903 21.3606 7.71968 21.2199C7.86033 21.0793 8.0511 21.0003 8.25001 21.0003C8.0511 21.0003 7.86033 20.9213 7.71968 20.7806C7.57903 20.64 7.50001 20.4492 7.50001 20.2503C7.50001 20.0514 7.57903 19.8606 7.71968 19.72C7.86033 19.5793 8.0511 19.5003 8.25001 19.5003C8.10329 19.5005 7.95973 19.4578 7.83708 19.3772C7.71444 19.2967 7.61811 19.182 7.56001 19.0473L6.41851 16.3923C6.25387 16.0424 6.02314 15.7276 5.73901 15.4653C4.87117 14.6272 4.1813 13.6228 3.71067 12.5119C3.24004 11.4011 2.99834 10.2067 3.00001 9.00028ZM12 1.50028C10.5063 1.50003 9.04645 1.94583 7.80768 2.78055C6.56891 3.61527 5.60762 4.80089 5.047 6.18544C4.48637 7.57 4.35196 9.09043 4.66098 10.5519C4.97001 12.0133 5.70839 13.3492 6.78151 14.3883C7.17601 14.7693 7.55251 15.2343 7.79551 15.7998L8.74501 18.0003H15.258L16.206 15.7998C16.449 15.2343 16.8255 14.7693 17.22 14.3883C18.2932 13.3491 19.0316 12.0131 19.3406 10.5515C19.6496 9.08992 19.515 7.56937 18.9542 6.18475C18.3934 4.80013 17.4319 3.61453 16.1929 2.77992C14.9539 1.94532 13.4939 1.49973 12 1.50028Z" fill="#FF8C00"/>
</g>
<defs>
<clipPath id="clip0_217_1318">
<rect width="24" height="24" fill="white"/>
</clipPath>
</defs>
</svg>
