<svg width="32" height="32" viewBox="0 0 32 32" fill="none" xmlns="http://www.w3.org/2000/svg">
<path d="M18.6663 2.66699H7.99967C7.29243 2.66699 6.61415 2.94794 6.11406 3.44804C5.61396 3.94814 5.33301 4.62642 5.33301 5.33366V26.667C5.33301 27.3742 5.61396 28.0525 6.11406 28.5526C6.61415 29.0527 7.29243 29.3337 7.99967 29.3337H23.9997C24.7069 29.3337 25.3852 29.0527 25.8853 28.5526C26.3854 28.0525 26.6663 27.3742 26.6663 26.667V10.667L18.6663 2.66699Z" stroke="#5435DC" stroke-width="2" stroke-linecap="round" stroke-linejoin="round"/>
<path d="M18.667 2.66699V10.667H26.667" stroke="#5435DC" stroke-width="2" stroke-linecap="round" stroke-linejoin="round"/>
<path d="M21.3337 17.333H10.667" stroke="#5435DC" stroke-width="2" stroke-linecap="round" stroke-linejoin="round"/>
<path d="M21.3337 22.667H10.667" stroke="#5435DC" stroke-width="2" stroke-linecap="round" stroke-linejoin="round"/>
<path d="M13.3337 12H12.0003H10.667" stroke="#5435DC" stroke-width="2" stroke-linecap="round" stroke-linejoin="round"/>
</svg>
