<svg width="32" height="32" viewBox="0 0 32 32" fill="none" xmlns="http://www.w3.org/2000/svg">
<path d="M16.0003 2.66699C16.5008 2.66699 16.9941 2.6941 17.4803 2.74833C17.6544 2.76759 17.8229 2.82094 17.9763 2.90534C18.1298 2.98974 18.2651 3.10353 18.3745 3.24022C18.484 3.3769 18.5654 3.53381 18.6142 3.70198C18.663 3.87015 18.6783 4.04628 18.659 4.22033C18.6397 4.39437 18.5864 4.56292 18.502 4.71634C18.4176 4.86977 18.3038 5.00507 18.1671 5.11452C18.0304 5.22397 17.8735 5.30542 17.7053 5.35423C17.5372 5.40304 17.361 5.41825 17.187 5.39899C14.9897 5.15318 12.7704 5.59625 10.8359 6.66689C8.90143 7.73753 7.34746 9.38285 6.38895 11.3753C5.43043 13.3677 5.11473 15.6087 5.48551 17.7884C5.8563 19.968 6.89525 21.9786 8.45864 23.542C10.022 25.1054 12.0326 26.1444 14.2123 26.5151C16.392 26.8859 18.633 26.5702 20.6254 25.6117C22.6178 24.6532 24.2631 23.0992 25.3338 21.1648C26.4044 19.2303 26.8475 17.0109 26.6017 14.8137C26.5824 14.6396 26.5976 14.4635 26.6464 14.2953C26.6952 14.1271 26.7767 13.9702 26.8861 13.8335C27.1072 13.5575 27.4288 13.3806 27.7803 13.3417C28.1318 13.3028 28.4844 13.4051 28.7604 13.6261C28.8971 13.7356 29.0109 13.8709 29.0953 14.0243C29.1797 14.1777 29.2331 14.3463 29.2523 14.5203C29.3057 15.0065 29.3328 15.4999 29.3337 16.0003C29.3337 23.3643 23.3643 29.3337 16.0003 29.3337C8.63633 29.3337 2.66699 23.3643 2.66699 16.0003C2.66699 8.63633 8.63633 2.66699 16.0003 2.66699ZM15.9577 10.503C16.0455 10.8453 15.9939 11.2085 15.8142 11.5127C15.6344 11.817 15.3412 12.0375 14.999 12.1257C14.0588 12.3719 13.2404 12.9519 12.6964 13.7573C12.1524 14.5627 11.92 15.5385 12.0426 16.5026C12.1652 17.4667 12.6344 18.3533 13.3626 18.9969C14.0909 19.6405 15.0284 19.9972 16.0003 20.0003C16.8874 20.0007 17.7494 19.7062 18.4508 19.1631C19.1522 18.62 19.6532 17.8592 19.875 17.0003C19.9695 16.6648 20.1917 16.3796 20.4939 16.2059C20.7961 16.0322 21.1543 15.9837 21.4918 16.0708C21.8293 16.158 22.1193 16.3739 22.2995 16.6722C22.4798 16.9706 22.5361 17.3277 22.4563 17.667C22.0473 19.2349 21.0814 20.6003 19.7392 21.508C18.397 22.4158 16.7701 22.8038 15.1627 22.5997C13.5552 22.3955 12.077 21.6131 11.0043 20.3986C9.93163 19.1842 9.33775 17.6207 9.33366 16.0003C9.33343 14.5222 9.82446 13.0859 10.7295 11.9172C11.6346 10.7486 12.9024 9.91386 14.3337 9.54432C14.5032 9.50062 14.6798 9.49074 14.8532 9.51527C15.0266 9.53979 15.1934 9.59824 15.3442 9.68726C15.495 9.77628 15.6268 9.89414 15.7321 10.0341C15.8373 10.1741 15.914 10.3334 15.9577 10.503ZM24.6723 2.83633C24.9157 2.93723 25.1237 3.10797 25.2701 3.327C25.4165 3.54603 25.4948 3.80353 25.495 4.06699V6.50699H27.9337C28.1973 6.50705 28.4551 6.58528 28.6743 6.73179C28.8935 6.8783 29.0643 7.08652 29.1652 7.33012C29.2661 7.57372 29.2925 7.84176 29.2411 8.10037C29.1897 8.35897 29.0627 8.59652 28.8763 8.78299L24.1603 13.4937C23.9103 13.7437 23.5713 13.8842 23.2177 13.8843H20.0003L17.563 16.323C17.3128 16.5732 16.9735 16.7137 16.6197 16.7137C16.2658 16.7137 15.9265 16.5732 15.6763 16.323C15.4261 16.0728 15.2856 15.7335 15.2856 15.3797C15.2856 15.0258 15.4261 14.6865 15.6763 14.4363L18.115 12.0003V8.78166C18.1151 8.42807 18.2556 8.08898 18.5057 7.83899L23.219 3.12433C23.4055 2.93775 23.6431 2.81067 23.9018 2.75917C24.1605 2.70766 24.4286 2.73405 24.6723 2.83499M22.8283 7.28433L20.7817 9.33366V11.219H22.667L24.715 9.17233H24.1617C23.808 9.17233 23.4689 9.03185 23.2188 8.7818C22.9688 8.53175 22.8283 8.19261 22.8283 7.83899V7.28433Z" fill="#10B981"/>
</svg>
