<svg width="20" height="20" viewBox="0 0 20 20" fill="none" xmlns="http://www.w3.org/2000/svg">
<path fill-rule="evenodd" clip-rule="evenodd" d="M2 19H14C14.5523 19 15 18.5523 15 18V2C15 1.44772 14.5523 1 14 1H2C1.44772 1 1 1.44772 1 2V18C1 18.5523 1.44772 19 2 19ZM14 20H2C0.89543 20 0 19.1045 0 18V2C0 0.89543 0.89543 0 2 0H14C15.1046 0 16 0.89543 16 2V18C16 19.1045 15.1046 20 14 20Z" fill="white"/>
<path fill-rule="evenodd" clip-rule="evenodd" d="M7 4.5C7 4.22385 7.22385 4 7.5 4H13.5C13.7761 4 14 4.22385 14 4.5C14 4.77615 13.7761 5 13.5 5H7.5C7.22385 5 7 4.77615 7 4.5Z" fill="white"/>
<path fill-rule="evenodd" clip-rule="evenodd" d="M7 6.49988C7 6.22373 7.22385 5.99988 7.5 5.99988H13.5C13.7761 5.99988 14 6.22373 14 6.49988C14 6.77603 13.7761 6.99988 13.5 6.99988H7.5C7.22385 6.99988 7 6.77603 7 6.49988Z" fill="white"/>
<path fill-rule="evenodd" clip-rule="evenodd" d="M7 10.5C7 10.2239 7.22385 10 7.5 10H13.5C13.7761 10 14 10.2239 14 10.5C14 10.7761 13.7761 11 13.5 11H7.5C7.22385 11 7 10.7761 7 10.5Z" fill="white"/>
<path fill-rule="evenodd" clip-rule="evenodd" d="M7 12.5C7 12.2239 7.22385 12 7.5 12H13.5C13.7761 12 14 12.2239 14 12.5C14 12.7761 13.7761 13 13.5 13H7.5C7.22385 13 7 12.7761 7 12.5Z" fill="white"/>
<path fill-rule="evenodd" clip-rule="evenodd" d="M3 11V12.5H4.5V11H3ZM2.5 10H5C5.27615 10 5.5 10.2238 5.5 10.5V13C5.5 13.2761 5.27615 13.5 5 13.5H2.5C2.22386 13.5 2 13.2761 2 13V10.5C2 10.2238 2.22386 10 2.5 10Z" fill="white"/>
<path fill-rule="evenodd" clip-rule="evenodd" d="M5.85355 4.14644C6.0488 4.34169 6.0488 4.65829 5.85355 4.85354L3.5 7.20709L2.14645 5.85354C1.95119 5.65829 1.95119 5.34169 2.14645 5.14644C2.34171 4.95119 2.65829 4.95119 2.85356 5.14644L3.5 5.79289L5.14645 4.14644C5.3417 3.95119 5.6583 3.95119 5.85355 4.14644Z" fill="white"/>
<path fill-rule="evenodd" clip-rule="evenodd" d="M19 10H18V17.6667L18.5 18.3333L19 17.6667V10ZM20 18L18.5 20L17 18V9H20V18Z" fill="white"/>
<path fill-rule="evenodd" clip-rule="evenodd" d="M19 6.5H18V7.5H19V6.5ZM18 5.5H19C19.5523 5.5 20 5.9477 20 6.5V8.5H17V6.5C17 5.9477 17.4477 5.5 18 5.5Z" fill="white"/>
</svg>
