<svg width="14" height="14" viewBox="0 0 14 14" fill="none" xmlns="http://www.w3.org/2000/svg">
<path d="M5.8335 7.58335C6.08401 7.91826 6.40362 8.19538 6.77065 8.3959C7.13768 8.59643 7.54354 8.71567 7.96071 8.74555C8.37788 8.77543 8.79659 8.71524 9.18845 8.56906C9.58031 8.42289 9.93615 8.19415 10.2318 7.89835L11.9818 6.14835C12.5131 5.59826 12.8071 4.86151 12.8005 4.09677C12.7938 3.33203 12.4871 2.60049 11.9463 2.05972C11.4055 1.51894 10.674 1.2122 9.90925 1.20555C9.14451 1.19891 8.40775 1.49289 7.85766 2.02419L6.85433 3.02169" stroke="#4B5768" stroke-width="1.16667" stroke-linecap="round" stroke-linejoin="round"/>
<path d="M8.16678 6.41672C7.91627 6.08181 7.59666 5.80469 7.22963 5.60417C6.8626 5.40364 6.45674 5.2844 6.03957 5.25452C5.6224 5.22465 5.20369 5.28484 4.81183 5.43101C4.41997 5.57719 4.06413 5.80593 3.76845 6.10172L2.01845 7.85172C1.48716 8.40181 1.19317 9.13856 1.19982 9.9033C1.20646 10.668 1.51321 11.3996 2.05398 11.9404C2.59475 12.4811 3.32629 12.7879 4.09103 12.7945C4.85577 12.8012 5.59253 12.5072 6.14262 11.9759L7.14012 10.9784" stroke="#4B5768" stroke-width="1.16667" stroke-linecap="round" stroke-linejoin="round"/>
</svg>
